<?xml version="1.0" standalone="no"?>
<!DOCTYPE svg PUBLIC "-//W3C//DTD SVG 20010904//EN"
 "http://www.w3.org/TR/2001/REC-SVG-20010904/DTD/svg10.dtd">
<svg version="1.0" xmlns="http://www.w3.org/2000/svg"
 width="360.000000pt" height="405.000000pt" viewBox="0 0 360.000000 405.000000"
 preserveAspectRatio="xMidYMid meet">

<g transform="translate(0.000000,405.000000) scale(0.100000,-0.100000)"
fill="#000000" stroke="none">
<path d="M1709 4039 c-31 -7 -1314 -739 -1538 -876 -85 -53 -142 -130 -161
-216 -8 -37 -10 -316 -8 -952 l3 -900 27 -55 c15 -30 46 -74 70 -96 28 -27
297 -188 768 -460 399 -230 752 -432 785 -449 52 -26 69 -30 145 -30 76 0 93
4 145 30 157 79 1515 872 1548 904 21 20 53 63 70 96 l32 60 0 930 0 930 -40
75 c-29 53 -54 83 -85 106 -99 70 -1543 895 -1583 904 -50 11 -128 11 -178 -1z
m288 -849 c425 -107 729 -329 841 -616 l20 -49 93 -1 c52 0 111 -4 132 -8 140
-27 262 -144 308 -298 18 -57 21 -87 17 -163 -4 -81 -10 -104 -40 -167 -57
-119 -145 -202 -258 -244 -26 -10 -92 -19 -153 -23 l-109 -6 -33 -80 c-115
-278 -294 -462 -555 -568 -145 -59 -226 -72 -460 -71 -189 0 -213 2 -302 26
-309 84 -551 287 -695 586 l-55 112 -89 0 c-107 0 -185 23 -268 79 -66 45
-107 94 -153 181 -31 60 -33 70 -36 182 -5 165 20 236 118 342 85 91 220 135
363 118 63 -8 87 -2 87 20 0 5 22 48 49 96 110 194 301 364 504 448 337 139
459 158 674 104z"/>
<path d="M2160 2629 c-30 -4 -84 -17 -120 -28 -36 -12 -107 -26 -158 -33 -104
-13 -158 -6 -314 39 -76 21 -104 25 -187 21 -85 -3 -106 -8 -162 -35 -87 -44
-160 -117 -201 -200 -29 -61 -32 -77 -32 -153 0 -67 5 -96 22 -134 33 -73 87
-133 164 -183 80 -52 82 -61 41 -162 -22 -54 -27 -82 -28 -156 0 -77 4 -98 26
-145 68 -142 194 -220 414 -255 290 -47 619 19 731 149 94 108 105 217 42 418
-19 63 -20 69 -4 93 9 13 34 34 55 44 52 27 127 104 155 160 88 173 38 371
-119 475 -106 71 -222 101 -325 85z m-694 -335 c44 -21 64 -60 64 -124 0 -87
-46 -130 -140 -130 -95 0 -140 43 -140 134 0 44 5 60 27 86 14 18 36 36 47 40
35 14 106 11 142 -6z m840 0 c85 -41 94 -178 15 -231 -25 -17 -48 -23 -91 -23
-43 0 -66 6 -91 23 -80 54 -71 195 16 233 42 18 110 17 151 -2z m-540 -242
c16 -11 34 -48 34 -72 0 -58 -97 -93 -140 -50 -25 25 -27 86 -3 112 16 18 87
25 109 10z m208 -14 c38 -53 3 -128 -59 -128 -73 0 -111 76 -63 127 30 32 100
33 122 1z m123 -404 c19 -14 29 -32 31 -54 10 -94 -28 -115 -180 -99 -61 6
-161 8 -245 4 -77 -4 -151 -4 -162 0 -30 9 -54 60 -47 100 13 68 42 74 343 72
218 -2 233 -3 260 -23z"/>
<path d="M615 2239 c-40 -11 -103 -77 -120 -124 -17 -51 -5 -89 42 -137 61
-63 158 -97 200 -70 8 5 11 56 10 165 0 158 0 159 -24 168 -29 11 -67 10 -108
-2z"/>
<path d="M2881 2241 c-23 -6 -24 -7 -25 -169 l-2 -162 35 -6 c69 -13 176 48
211 121 22 45 22 47 5 91 -38 99 -132 151 -224 125z"/>
</g>
</svg>
